<svg version="1.1" id="Layer_1" xmlns="http://www.w3.org/2000/svg" xmlns:xlink="http://www.w3.org/1999/xlink" x="0px" y="0px"
	 viewBox="0 0 1200.4 608.6" style="enable-background:new 0 0 1200.4 608.6;" xml:space="preserve">
<style type="text/css">
	.st0{opacity:0.65;fill:#003F88;}
	.st1{opacity:0.5;}
	.st2{fill:#FDC500;}
</style>
<rect class="st0" width="1200.4" height="608.6"/>
<g class="st1">
	<g>
		<circle class="st2" cx="881.7" cy="328.7" r="9.3"/>
		<g>
			<g>
				<path class="st2" d="M881.7,342.5c-7.6,0-13.8-6.2-13.8-13.8s6.2-13.8,13.8-13.8s13.8,6.2,13.8,13.8S889.3,342.5,881.7,342.5z
					 M881.7,316.9c-6.5,0-11.8,5.3-11.8,11.8s5.3,11.8,11.8,11.8s11.8-5.3,11.8-11.8S888.2,316.9,881.7,316.9z"/>
			</g>
		</g>
	</g>
	<g>
		<circle class="st2" cx="375.6" cy="405" r="9.3"/>
		<g>
			<g>
				<path class="st2" d="M375.6,418.8c-7.6,0-13.8-6.2-13.8-13.8s6.2-13.8,13.8-13.8s13.8,6.2,13.8,13.8S383.2,418.8,375.6,418.8z
					 M375.6,393.2c-6.5,0-11.8,5.3-11.8,11.8s5.3,11.8,11.8,11.8s11.8-5.3,11.8-11.8S382.1,393.2,375.6,393.2z"/>
			</g>
		</g>
	</g>
	<g>
		<circle class="st2" cx="640.9" cy="473.7" r="9.3"/>
		<g>
			<g>
				<path class="st2" d="M640.9,490c-9,0-16.3-7.3-16.3-16.3s7.3-16.3,16.3-16.3c9,0,16.3,7.3,16.3,16.3S649.9,490,640.9,490z
					 M640.9,459.7c-7.7,0-13.9,6.2-13.9,13.9s6.2,13.9,13.9,13.9c7.7,0,13.9-6.2,13.9-13.9S648.6,459.7,640.9,459.7z"/>
			</g>
		</g>
	</g>
	<g>
		<circle class="st2" cx="330" cy="79.1" r="9.3"/>
		<g>
			<g>
				<path class="st2" d="M330,97.5c-10.2,0-18.4-8.3-18.4-18.4s8.3-18.4,18.4-18.4c10.2,0,18.4,8.3,18.4,18.4S340.1,97.5,330,97.5z
					 M330,65.1c-7.7,0-13.9,6.2-13.9,13.9S322.3,93,330,93s13.9-6.2,13.9-13.9S337.7,65.1,330,65.1z"/>
			</g>
		</g>
	</g>
	<g>
		<circle class="st2" cx="1176.4" cy="268.6" r="11.6"/>
		<g>
			<g>
				<path class="st2" d="M1176.4,291.6c-12.7,0-23-10.3-23-23s10.3-23,23-23s23,10.3,23,23S1189.1,291.6,1176.4,291.6z
					 M1176.4,251.2c-9.6,0-17.4,7.8-17.4,17.4s7.8,17.4,17.4,17.4s17.4-7.8,17.4-17.4S1186,251.2,1176.4,251.2z"/>
			</g>
		</g>
	</g>
	<g>
		<circle class="st2" cx="765.2" cy="347.2" r="6.2"/>
		<g>
			<g>
				<path class="st2" d="M765.2,356.5c-5.1,0-9.2-4.1-9.2-9.2s4.1-9.2,9.2-9.2s9.2,4.1,9.2,9.2S770.3,356.5,765.2,356.5z
					 M765.2,339.3c-4.3,0-7.9,3.5-7.9,7.9s3.5,7.9,7.9,7.9s7.9-3.5,7.9-7.9S769.5,339.3,765.2,339.3z"/>
			</g>
		</g>
	</g>
	<g>
		<circle class="st2" cx="284.1" cy="574.2" r="12.5"/>
		<g>
			<g>
				<path class="st2" d="M284.1,592.7c-10.2,0-18.4-8.3-18.4-18.4c0-10.2,8.3-18.4,18.4-18.4c10.2,0,18.5,8.3,18.5,18.4
					C302.6,584.4,294.3,592.7,284.1,592.7z M284.1,558.5c-8.7,0-15.8,7.1-15.8,15.8s7.1,15.8,15.8,15.8c8.7,0,15.8-7.1,15.8-15.8
					S292.8,558.5,284.1,558.5z"/>
			</g>
		</g>
	</g>
	<g>
		<circle class="st2" cx="1037" cy="525.1" r="9.3"/>
		<g>
			<g>
				<path class="st2" d="M1037,543.5c-10.2,0-18.4-8.3-18.4-18.4s8.3-18.4,18.4-18.4c10.2,0,18.4,8.3,18.4,18.4
					S1047.1,543.5,1037,543.5z M1037,511.1c-7.7,0-13.9,6.2-13.9,13.9c0,7.7,6.2,13.9,13.9,13.9c7.7,0,13.9-6.2,13.9-13.9
					C1050.9,517.4,1044.7,511.1,1037,511.1z"/>
			</g>
		</g>
	</g>
	<g>
		<circle class="st2" cx="11" cy="291.6" r="9.3"/>
		<g>
			<g>
				<path class="st2" d="M11,310c-10.2,0-18.4-8.3-18.4-18.4c0-10.2,8.3-18.4,18.4-18.4s18.4,8.3,18.4,18.4
					C29.4,301.7,21.1,310,11,310z M11,277.6c-7.7,0-13.9,6.2-13.9,13.9s6.2,13.9,13.9,13.9s13.9-6.2,13.9-13.9S18.7,277.6,11,277.6z
					"/>
			</g>
		</g>
	</g>
	<g>
		<circle class="st2" cx="596.2" cy="185.2" r="6.2"/>
		<g>
			<g>
				<path class="st2" d="M596.2,194.5c-5.1,0-9.2-4.1-9.2-9.2s4.1-9.2,9.2-9.2s9.2,4.1,9.2,9.2S601.3,194.5,596.2,194.5z
					 M596.2,177.3c-4.3,0-7.9,3.5-7.9,7.9s3.5,7.9,7.9,7.9s7.9-3.5,7.9-7.9S600.5,177.3,596.2,177.3z"/>
			</g>
		</g>
	</g>
</g>
</svg>
