<svg version="1.1" id="Layer_1" xmlns="http://www.w3.org/2000/svg" xmlns:xlink="http://www.w3.org/1999/xlink" x="0px" y="0px"
	 viewBox="0 0 185.1 185.1" style="enable-background:new 0 0 185.1 185.1;" xml:space="preserve">
<style type="text/css">
	.st0{fill:#FDC500;}
	.st1{fill:#003F88;}
</style>
<g>
	<path class="st0" d="M0.1,90.9C1.5,9.6,12.8-1.3,94.2,0.1s92.3,12.7,90.8,94.1c-1.4,81.4-12.7,92.3-94.1,90.8
		C9.6,183.6-1.3,172.3,0.1,90.9"/>
	<path class="st1" d="M91.7,41.8c-18.2,0-32.9,14.7-32.9,32.9c0,25.5,32.9,57.1,32.9,57.1s32.9-31.7,32.9-57.1
		C124.6,56.5,109.9,41.8,91.7,41.8z M91.7,89.8c-8.3,0-15-6.7-15-15s6.7-15,15-15s15,6.7,15,15S100,89.8,91.7,89.8z"/>
</g>
</svg>
