<svg version="1.1" id="Layer_1" xmlns="http://www.w3.org/2000/svg" xmlns:xlink="http://www.w3.org/1999/xlink" x="0px" y="0px"
	 viewBox="0 0 185.1 185.1" style="enable-background:new 0 0 185.1 185.1;" xml:space="preserve">
<style type="text/css">
	.st0{fill:#FDC500;}
	.st1{fill:#003F88;}
</style>
<g>
	<path class="st0" d="M0.1,90.9C1.5,9.6,12.8-1.3,94.2,0.1s92.3,12.7,90.8,94.1c-1.4,81.4-12.7,92.3-94.1,90.8
		C9.6,183.6-1.3,172.3,0.1,90.9"/>
	<path class="st1" d="M141.1,91.1c-5-18.8-28-31.4-46.4-31.4c-18.5,0-42.5,12.9-47.4,31.4l-0.2,0.7l0.2,0.7
		c4.9,18.5,28.9,31.4,47.4,31.4c18.4,0,41.4-12.6,46.4-31.4l0.2-0.7L141.1,91.1z M94.7,118.3c-16.1,0-37-10.8-41.7-26.5
		c4.7-15.6,25.5-26.5,41.7-26.5c15.7,0,36,10.8,40.7,26.5C130.7,107.5,110.4,118.3,94.7,118.3z M94.2,74.9c-1.2,0-2.4,0.1-3.5,0.4
		c1.6,2.3,2.6,5,2.6,7.9c0,7.8-6.9,14.2-15.4,14.2c-0.1,0-0.3,0-0.4,0c2.1,7.2,8.8,12.5,16.7,12.5c9.6,0,17.4-7.8,17.4-17.4
		S103.8,74.9,94.2,74.9z"/>
</g>
</svg>
