<svg version="1.1" id="Layer_1" xmlns="http://www.w3.org/2000/svg" xmlns:xlink="http://www.w3.org/1999/xlink" x="0px" y="0px"
	 viewBox="0 0 185.1 185.1" style="enable-background:new 0 0 185.1 185.1;" xml:space="preserve">
<style type="text/css">
	.st0{fill:#FDC500;}
	.st1{fill:#003F88;}
</style>
<g>
	<path class="st0" d="M0.1,90.9C1.5,9.6,12.8-1.3,94.2,0.1s92.3,12.7,90.8,94.1c-1.4,81.4-12.7,92.3-94.1,90.8
		C9.6,183.6-1.3,172.3,0.1,90.9"/>
	<path class="st1" d="M139.7,130.5L122,112.9c4.5-6,7.1-13.4,7.1-21.4c0-19.8-16.1-36-36-36c-19.8,0-36,16.1-36,36s16.1,36,36,36
		c7.4,0,14.3-2.2,20.1-6.1l17.9,17.9c1.2,1.2,2.8,1.8,4.3,1.8s3.1-0.6,4.3-1.8C142,136.8,142,133,139.7,130.5z M69.4,91.5
		c0-13.1,10.7-23.8,23.7-23.8s23.7,10.7,23.7,23.7s-10.6,23.8-23.7,23.8S69.4,104.6,69.4,91.5z"/>
</g>
</svg>
