<svg version="1.1" id="Layer_1" xmlns="http://www.w3.org/2000/svg" xmlns:xlink="http://www.w3.org/1999/xlink" x="0px" y="0px"
	 viewBox="0 0 185.1 185.1" style="enable-background:new 0 0 185.1 185.1;" xml:space="preserve">
<style type="text/css">
	.st0{fill:#FDC500;}
	.st1{fill:none;}
	.st2{fill:#003F88;}
</style>
<g>
	<path class="st0" d="M0.1,90.9C1.5,9.6,12.8-1.3,94.2,0.1s92.3,12.7,90.8,94.1c-1.4,81.4-12.7,92.3-94.1,90.8
		C9.6,183.6-1.3,172.3,0.1,90.9"/>
	<g>
		<rect x="20.6" y="40.3" class="st1" width="128.7" height="104.4"/>
		<path class="st2" d="M146.9,48c-3.6-2.1-125.1,37-125.1,40c0,1.2,9.2,4.6,26.8,11.9c5.8,2.4,5.8,2.4,8.2,7.6s7.1,15.4,9.5,20.5
			c2.2,5.1,2.2,5.1,5.8,2.3c18.3-14.7,15.5-14.9,23-10.2c19.8,12.1,28.4,16.4,29.3,16C125.9,135.1,150,49.9,146.9,48z M80.5,97.1
			c-11.4,9-8.8,5.8-10.4,16.2c-0.3,1.6-0.6,2.8-1,2.7c-0.3,0-0.7-0.5-1.3-1.5c-1.5-2.8-4.5-10-5.8-13.5c-1.5-3.7-1.5-3.7,9.4-9.6
			C138.4,54.5,138.9,51.2,80.5,97.1z"/>
	</g>
</g>
</svg>
